<?xml version="1.0" standalone="no"?>
<!DOCTYPE svg PUBLIC "-//W3C//DTD SVG 20010904//EN"
 "http://www.w3.org/TR/2001/REC-SVG-20010904/DTD/svg10.dtd">
<svg version="1.0" xmlns="http://www.w3.org/2000/svg"
 width="1200.000000pt" height="1200.000000pt" viewBox="0 0 1200.000000 1200.000000"
 preserveAspectRatio="xMidYMid meet">
<metadata>
Created by potrace 1.11, written by Peter Selinger 2001-2013
</metadata>
<g transform="translate(0.000000,1200.000000) scale(0.100000,-0.100000)"
fill="#000000" stroke="none">
<path d="M1040 6130 c0 -1082 0 -1100 19 -1100 11 0 23 -4 26 -10 9 -14 42
-12 52 3 4 6 10 232 13 502 l5 489 25 13 c20 10 183 12 765 10 l740 -2 3 -502
c2 -496 2 -503 22 -503 11 0 29 -6 41 -12 17 -11 22 -10 35 7 12 16 14 165 11
1075 -2 580 -7 1072 -12 1093 -7 36 -8 37 -51 37 l-44 0 0 -540 0 -540 -770 0
-770 0 -3 503 c-2 276 -7 519 -12 540 -7 36 -8 37 -51 37 l-44 0 0 -1100z"/>
<path d="M4980 6130 c0 -1041 1 -1100 18 -1100 9 0 26 -7 36 -15 30 -22 815
-22 942 0 226 40 414 133 581 288 222 208 343 488 343 797 0 177 -36 322 -127
506 -162 330 -484 560 -858 614 -38 5 -265 10 -502 10 l-433 0 0 -1100z m1024
965 c203 -42 406 -156 524 -293 185 -215 274 -466 259 -726 -15 -258 -122
-491 -309 -672 -135 -131 -281 -216 -453 -265 -76 -22 -99 -23 -510 -27 l-430
-3 3 988 c2 646 7 992 13 1000 6 6 20 14 32 16 12 3 195 3 407 2 312 -3 400
-6 464 -20z"/>
<path d="M7270 6130 c0 -1069 1 -1100 19 -1100 10 0 24 -7 31 -15 11 -13 113
-15 805 -15 622 0 795 3 802 13 6 6 8 31 5 55 l-4 42 -774 0 -774 0 -1 48 c-1
26 0 234 1 462 1 406 1 415 22 433 19 16 66 17 682 17 363 0 666 4 673 8 7 4
9 24 6 55 l-6 47 -688 0 -689 0 0 449 c0 395 2 451 16 465 8 9 23 16 32 16
860 0 1493 7 1502 16 6 6 8 29 4 57 l-7 47 -828 0 -829 0 0 -1100z"/>
<path d="M9113 7158 c18 -40 239 -533 492 -1096 445 -989 462 -1024 497 -1044
30 -17 42 -19 60 -11 18 8 75 126 262 544 132 294 293 653 359 799 66 146 134
299 153 340 18 41 71 160 117 264 66 146 83 194 76 208 -5 10 -7 29 -3 43 6
24 4 25 -37 25 l-44 0 -448 -1008 c-246 -554 -455 -1022 -464 -1041 l-17 -33
-17 33 c-14 29 -297 658 -761 1694 -164 365 -158 355 -213 355 l-44 0 32 -72z"/>
<path d="M3047 6753 c3 -10 181 -384 395 -832 213 -447 388 -818 388 -823 0
-6 -72 -159 -160 -340 -88 -182 -160 -332 -160 -334 0 -2 13 -4 29 -4 17 0 33
-4 36 -10 10 -16 40 -12 59 8 9 11 83 158 165 328 82 170 189 392 238 494 129
263 408 838 561 1155 119 246 130 275 129 323 l-1 53 -45 -3 -45 -3 -370 -767
c-204 -422 -376 -772 -382 -778 -8 -8 -21 11 -46 67 -81 177 -628 1344 -662
1411 l-36 72 -50 0 c-43 0 -49 -2 -43 -17z"/>
</g>
</svg>
